<?xml version="1.0" encoding="UTF-8" standalone="no"?>
<svg width="56px" height="56px" viewBox="0 0 56 56" version="1.1" xmlns="http://www.w3.org/2000/svg"
  class="radio-rect__icon path__stroke__checked polyline__stroke__checked">
  <title>Appartement</title>
  <g id="assets" stroke="none" stroke-width="1" fill="none" fill-rule="evenodd" opacity="0.6" stroke-linejoin="round">
    <g id="Appartment" stroke="#393939" stroke-width="2">
      <g id="Page-1" transform="translate(10.000000, 7.000000)">
        <path
          d="M4,41 L4,1 C4,0.448 4.448,0 5,0 L31,0 C31.553,0 32,0.448 32,1 L32,41 L21,41 L21,33 C21,32.447 20.553,32 20,32 L16,32 C15.448,32 15,32.447 15,33 L15,41 L4,41 Z"
          id="Stroke-1" stroke-linecap="round"></path>
        <path d="M11,12 L11,9" id="Stroke-3" stroke-linecap="square"></path>
        <path d="M18,12 L18,9" id="Stroke-5" stroke-linecap="square"></path>
        <path d="M25,12 L25,9" id="Stroke-7" stroke-linecap="square"></path>
        <path d="M11,23 L11,20" id="Stroke-9" stroke-linecap="square"></path>
        <path d="M18,23 L18,20" id="Stroke-11" stroke-linecap="square"></path>
        <path d="M25,23 L25,20" id="Stroke-13" stroke-linecap="square"></path>
        <path d="M0,41 L36,41" id="Stroke-15" stroke-linecap="round"></path>
      </g>
    </g>
  </g>
</svg>
